<?xml version="1.0" encoding="UTF-8" standalone="no"?>
<!-- Created with Inkscape (http://www.inkscape.org/) -->

<svg
   width="150mm"
   height="120mm"
   viewBox="0 0 150 120"
   version="1.1"
   id="svg206"
   xml:space="preserve"
   xmlns="http://www.w3.org/2000/svg"
   xmlns:svg="http://www.w3.org/2000/svg"><defs
     id="defs203" /><g
     id="layer1"
     transform="translate(-40.226568,-77.009121)"><path
       style="fill:#000000;stroke-width:0.216639"
       d="m 111.82116,194.74114 c -1.22131,-0.22889 -2.90648,-0.88501 -6.60748,-2.57261 -9.457502,-4.31251 -16.154971,-6.98624 -24.155236,-9.64313 -10.808301,-3.58944 -18.598222,-5.55286 -31.715052,-7.99361 -1.437547,-0.26751 -2.52621,-0.58921 -2.784325,-0.82281 -1.085423,-0.98228 -1.029389,1.27774 -1.029389,-41.51858 V 92.226404 l 0.555523,-0.660211 c 0.745732,-0.88625 1.77537,-1.154181 3.082918,-0.802262 0.560612,0.150897 2.708895,0.875409 4.773961,1.610029 2.065067,0.734615 3.844214,1.335668 3.95366,1.335668 0.116161,0 0.19899,-2.527742 0.19899,-6.072849 0,-6.465266 0.07414,-7.008707 1.07784,-7.900364 0.417279,-0.370688 0.773603,-0.429775 2.467087,-0.409033 4.05787,0.04964 14.972806,1.824207 21.368534,3.474025 12.651964,3.263626 23.221059,8.913214 30.309409,16.201516 l 1.82141,1.872787 2.40305,-2.350553 c 4.62819,-4.527071 8.57309,-7.313633 14.64316,-10.343501 8.70521,-4.345181 19.00701,-7.034159 33.14574,-8.65171 3.84364,-0.439744 4.72279,-0.425938 5.56463,0.08734 1.2299,0.749923 1.25016,0.866098 1.36781,7.841264 l 0.10827,6.422338 4.33279,-1.592636 c 5.25928,-1.933196 6.2159,-2.0465 7.38738,-0.875039 0.41915,0.419155 0.73676,0.955982 0.73701,1.245687 2.2e-4,0.280006 0.0353,17.76439 0.0778,38.85417 0.0425,21.0898 0.004,39.02559 -0.086,39.85731 -0.14582,1.35053 -0.23922,1.57562 -0.8734,2.10506 -0.39736,0.33174 -1.19455,0.69281 -1.81008,0.81984 -0.60497,0.12491 -3.58589,0.71926 -6.62425,1.32092 -17.73221,3.51132 -33.08009,8.59602 -51.47471,17.0534 -4.45004,2.04601 -4.51012,2.06133 -8.31761,2.12067 -1.84684,0.0289 -3.60162,0.007 -3.8995,-0.0491 z m 9.57839,-14.70287 c 9.19251,-7.89168 21.42026,-13.36928 35.75121,-16.01525 2.42327,-0.44741 7.73394,-1.2056 8.44453,-1.2056 0.093,0 0.16894,-17.25528 0.16894,-38.34508 V 86.127273 h -0.53119 c -0.90337,0 -6.58403,0.865749 -9.43347,1.437687 -12.74381,2.557951 -22.93424,6.725179 -29.65022,12.125043 -2.14811,1.727137 -5.64136,5.326407 -7.33692,7.559547 -0.90467,1.19151 -1.84855,2.33482 -2.09752,2.54069 -0.45104,0.37297 -1.91772,0.51477 -2.6033,0.25168 -0.18956,-0.0727 -1.14488,-1.16948 -2.12293,-2.43719 -7.68434,-9.960081 -19.502353,-16.358082 -36.671164,-19.852903 -3.483095,-0.709002 -9.167043,-1.624554 -10.085587,-1.624554 -0.415849,0 -0.42139,0.504707 -0.42139,38.331797 v 38.3318 l 0.920717,0.1194 c 5.984374,0.77604 9.821386,1.485 14.159363,2.6162 13.082169,3.41141 24.255061,9.58487 32.654861,18.04312 l 2.56571,2.58357 1.98369,-2.06116 c 1.09103,-1.13365 3.02813,-2.95782 4.30467,-4.05372 z"
       id="path288" /></g><g
     id="layer2"
     transform="translate(-40.226568,-77.009121)"><circle
       style="fill:#000000;fill-opacity:0.99137;stroke-width:0.147847;stroke-linecap:round"
       id="path496"
       cx="115.22657"
       cy="137.00912"
       r="6.1003327" /><path
       style="fill:none;fill-rule:evenodd;stroke:#000000;stroke-width:5;stroke-linecap:round;stroke-linejoin:miter;stroke-dasharray:none;stroke-opacity:1"
       d="m 115.63604,136.84026 17.17283,-8.129"
       id="path552" /><path
       style="fill:none;fill-rule:evenodd;stroke:#000000;stroke-width:5;stroke-linecap:round;stroke-linejoin:miter;stroke-dasharray:none;stroke-opacity:1"
       d="m 115.28337,138.78246 -0.1136,25.0285"
       id="path554" /></g></svg>
