<svg xmlns="http://www.w3.org/2000/svg" width="1600" height="760" viewBox="0 0 1600 760" role="img" aria-labelledby="title desc">
  <title id="title">Suport espacial i resolució en dades vectorials i ràster</title>
  <desc id="desc">El mateix àmbit es representa amb objectes i mostres vectorials, una graella fina de 25 metres i una graella grossa de 200 metres. Una cel·la grossa resumeix seixanta-quatre cel·les fines, però cap canvi de graella crea observacions noves.</desc>
  <defs>
    <linearGradient id="field" x1="0" y1="1" x2="1" y2="0">
      <stop offset="0%" stop-color="#176486"/>
      <stop offset="48%" stop-color="#75a98c"/>
      <stop offset="100%" stop-color="#e3a574"/>
    </linearGradient>
    <style>
      text { font-family: Arial, 'Liberation Sans', sans-serif; }
      .panel { fill: #ffffff; stroke: #c5d0d5; stroke-width: 2; }
      .heading { fill: #21313c; font-size: 36px; font-weight: 700; }
      .label { fill: #21313c; font-size: 29px; font-weight: 700; }
      .note { fill: #4f626b; font-size: 29px; }
      .footer { fill: #21313c; font-size: 30px; font-weight: 700; }
      .grid { stroke: #ffffff; stroke-width: 2; }
      .subgrid { stroke: #ffffff; stroke-width: 2; stroke-dasharray: 7 6; opacity: .9; }
      .object { fill: #7cb3c8; fill-opacity: .58; stroke: #176486; stroke-width: 6; }
      .line { fill: none; stroke: #21313c; stroke-width: 9; stroke-linecap: round; }
      .sample { fill: #ffffff; stroke: #21313c; stroke-width: 5; }
      .support { fill: none; stroke: #b84200; stroke-width: 7; }
      .leader { fill: none; stroke: #b84200; stroke-width: 4; }
      .support-label { fill: #b84200; font-size: 29px; font-weight: 700; }
    </style>
  </defs>
  <rect width="1600" height="760" fill="#f7f9fa"/>
  <rect x="20" y="25" width="510" height="710" class="panel"/>
  <rect x="545" y="25" width="510" height="710" class="panel"/>
  <rect x="1070" y="25" width="510" height="710" class="panel"/>
  <text x="275" y="80" text-anchor="middle" class="heading">Fenomen i vector</text>
  <rect x="75" y="130" width="400" height="400" fill="url(#field)"/>
  <path d="M 115,360 C 135,245 245,210 320,260 C 390,305 425,390 350,455 C 265,515 150,475 115,360 Z" class="object"/>
  <path d="M 90,455 C 165,390 230,420 290,340 C 340,275 395,245 465,200" class="line"/>
  <text x="255" y="330" text-anchor="middle" class="label">objecte discret</text>
  <circle cx="115" cy="180" r="10" class="sample"/>
  <circle cx="195" cy="245" r="10" class="sample"/>
  <circle cx="265" cy="175" r="10" class="sample"/>
  <circle cx="350" cy="220" r="10" class="sample"/>
  <circle cx="415" cy="165" r="10" class="sample"/>
  <circle cx="435" cy="330" r="10" class="sample"/>
  <circle cx="370" cy="450" r="10" class="sample"/>
  <text x="275" y="575" text-anchor="middle" class="note">identitats, línies o mostres</text>
  <text x="275" y="610" text-anchor="middle" class="note">d’un camp continu</text>
  <text x="800" y="80" text-anchor="middle" class="heading">Graella fina · 25 m</text>
  <rect x="600" y="130" width="25" height="25" fill="#75a98c" class="grid"/>
  <rect x="625" y="130" width="25" height="25" fill="#75a98c" class="grid"/>
  <rect x="650" y="130" width="25" height="25" fill="#c9bf7d" class="grid"/>
  <rect x="675" y="130" width="25" height="25" fill="#c9bf7d" class="grid"/>
  <rect x="700" y="130" width="25" height="25" fill="#75a98c" class="grid"/>
  <rect x="725" y="130" width="25" height="25" fill="#75a98c" class="grid"/>
  <rect x="750" y="130" width="25" height="25" fill="#75a98c" class="grid"/>
  <rect x="775" y="130" width="25" height="25" fill="#c9bf7d" class="grid"/>
  <rect x="800" y="130" width="25" height="25" fill="#c9bf7d" class="grid"/>
  <rect x="825" y="130" width="25" height="25" fill="#e3a574" class="grid"/>
  <rect x="850" y="130" width="25" height="25" fill="#e3a574" class="grid"/>
  <rect x="875" y="130" width="25" height="25" fill="#e3a574" class="grid"/>
  <rect x="900" y="130" width="25" height="25" fill="#c9bf7d" class="grid"/>
  <rect x="925" y="130" width="25" height="25" fill="#c9bf7d" class="grid"/>
  <rect x="950" y="130" width="25" height="25" fill="#c9bf7d" class="grid"/>
  <rect x="975" y="130" width="25" height="25" fill="#e3a574" class="grid"/>
  <rect x="600" y="155" width="25" height="25" fill="#75a98c" class="grid"/>
  <rect x="625" y="155" width="25" height="25" fill="#75a98c" class="grid"/>
  <rect x="650" y="155" width="25" height="25" fill="#75a98c" class="grid"/>
  <rect x="675" y="155" width="25" height="25" fill="#75a98c" class="grid"/>
  <rect x="700" y="155" width="25" height="25" fill="#75a98c" class="grid"/>
  <rect x="725" y="155" width="25" height="25" fill="#75a98c" class="grid"/>
  <rect x="750" y="155" width="25" height="25" fill="#75a98c" class="grid"/>
  <rect x="775" y="155" width="25" height="25" fill="#c9bf7d" class="grid"/>
  <rect x="800" y="155" width="25" height="25" fill="#c9bf7d" class="grid"/>
  <rect x="825" y="155" width="25" height="25" fill="#c9bf7d" class="grid"/>
  <rect x="850" y="155" width="25" height="25" fill="#c9bf7d" class="grid"/>
  <rect x="875" y="155" width="25" height="25" fill="#c9bf7d" class="grid"/>
  <rect x="900" y="155" width="25" height="25" fill="#c9bf7d" class="grid"/>
  <rect x="925" y="155" width="25" height="25" fill="#c9bf7d" class="grid"/>
  <rect x="950" y="155" width="25" height="25" fill="#c9bf7d" class="grid"/>
  <rect x="975" y="155" width="25" height="25" fill="#e3a574" class="grid"/>
  <rect x="600" y="180" width="25" height="25" fill="#75a98c" class="grid"/>
  <rect x="625" y="180" width="25" height="25" fill="#75a98c" class="grid"/>
  <rect x="650" y="180" width="25" height="25" fill="#75a98c" class="grid"/>
  <rect x="675" y="180" width="25" height="25" fill="#75a98c" class="grid"/>
  <rect x="700" y="180" width="25" height="25" fill="#75a98c" class="grid"/>
  <rect x="725" y="180" width="25" height="25" fill="#75a98c" class="grid"/>
  <rect x="750" y="180" width="25" height="25" fill="#75a98c" class="grid"/>
  <rect x="775" y="180" width="25" height="25" fill="#c9bf7d" class="grid"/>
  <rect x="800" y="180" width="25" height="25" fill="#c9bf7d" class="grid"/>
  <rect x="825" y="180" width="25" height="25" fill="#c9bf7d" class="grid"/>
  <rect x="850" y="180" width="25" height="25" fill="#c9bf7d" class="grid"/>
  <rect x="875" y="180" width="25" height="25" fill="#c9bf7d" class="grid"/>
  <rect x="900" y="180" width="25" height="25" fill="#c9bf7d" class="grid"/>
  <rect x="925" y="180" width="25" height="25" fill="#c9bf7d" class="grid"/>
  <rect x="950" y="180" width="25" height="25" fill="#e3a574" class="grid"/>
  <rect x="975" y="180" width="25" height="25" fill="#e3a574" class="grid"/>
  <rect x="600" y="205" width="25" height="25" fill="#75a98c" class="grid"/>
  <rect x="625" y="205" width="25" height="25" fill="#75a98c" class="grid"/>
  <rect x="650" y="205" width="25" height="25" fill="#3785a0" class="grid"/>
  <rect x="675" y="205" width="25" height="25" fill="#3785a0" class="grid"/>
  <rect x="700" y="205" width="25" height="25" fill="#75a98c" class="grid"/>
  <rect x="725" y="205" width="25" height="25" fill="#75a98c" class="grid"/>
  <rect x="750" y="205" width="25" height="25" fill="#c9bf7d" class="grid"/>
  <rect x="775" y="205" width="25" height="25" fill="#c9bf7d" class="grid"/>
  <rect x="800" y="205" width="25" height="25" fill="#c9bf7d" class="grid"/>
  <rect x="825" y="205" width="25" height="25" fill="#c9bf7d" class="grid"/>
  <rect x="850" y="205" width="25" height="25" fill="#c9bf7d" class="grid"/>
  <rect x="875" y="205" width="25" height="25" fill="#c9bf7d" class="grid"/>
  <rect x="900" y="205" width="25" height="25" fill="#c9bf7d" class="grid"/>
  <rect x="925" y="205" width="25" height="25" fill="#c9bf7d" class="grid"/>
  <rect x="950" y="205" width="25" height="25" fill="#e3a574" class="grid"/>
  <rect x="975" y="205" width="25" height="25" fill="#e3a574" class="grid"/>
  <rect x="600" y="230" width="25" height="25" fill="#3785a0" class="grid"/>
  <rect x="625" y="230" width="25" height="25" fill="#3785a0" class="grid"/>
  <rect x="650" y="230" width="25" height="25" fill="#3785a0" class="grid"/>
  <rect x="675" y="230" width="25" height="25" fill="#3785a0" class="grid"/>
  <rect x="700" y="230" width="25" height="25" fill="#75a98c" class="grid"/>
  <rect x="725" y="230" width="25" height="25" fill="#75a98c" class="grid"/>
  <rect x="750" y="230" width="25" height="25" fill="#c9bf7d" class="grid"/>
  <rect x="775" y="230" width="25" height="25" fill="#c9bf7d" class="grid"/>
  <rect x="800" y="230" width="25" height="25" fill="#75a98c" class="grid"/>
  <rect x="825" y="230" width="25" height="25" fill="#75a98c" class="grid"/>
  <rect x="850" y="230" width="25" height="25" fill="#75a98c" class="grid"/>
  <rect x="875" y="230" width="25" height="25" fill="#c9bf7d" class="grid"/>
  <rect x="900" y="230" width="25" height="25" fill="#c9bf7d" class="grid"/>
  <rect x="925" y="230" width="25" height="25" fill="#e3a574" class="grid"/>
  <rect x="950" y="230" width="25" height="25" fill="#e3a574" class="grid"/>
  <rect x="975" y="230" width="25" height="25" fill="#e3a574" class="grid"/>
  <rect x="600" y="255" width="25" height="25" fill="#3785a0" class="grid"/>
  <rect x="625" y="255" width="25" height="25" fill="#3785a0" class="grid"/>
  <rect x="650" y="255" width="25" height="25" fill="#3785a0" class="grid"/>
  <rect x="675" y="255" width="25" height="25" fill="#75a98c" class="grid"/>
  <rect x="700" y="255" width="25" height="25" fill="#75a98c" class="grid"/>
  <rect x="725" y="255" width="25" height="25" fill="#75a98c" class="grid"/>
  <rect x="750" y="255" width="25" height="25" fill="#75a98c" class="grid"/>
  <rect x="775" y="255" width="25" height="25" fill="#75a98c" class="grid"/>
  <rect x="800" y="255" width="25" height="25" fill="#75a98c" class="grid"/>
  <rect x="825" y="255" width="25" height="25" fill="#75a98c" class="grid"/>
  <rect x="850" y="255" width="25" height="25" fill="#75a98c" class="grid"/>
  <rect x="875" y="255" width="25" height="25" fill="#c9bf7d" class="grid"/>
  <rect x="900" y="255" width="25" height="25" fill="#c9bf7d" class="grid"/>
  <rect x="925" y="255" width="25" height="25" fill="#e3a574" class="grid"/>
  <rect x="950" y="255" width="25" height="25" fill="#c9bf7d" class="grid"/>
  <rect x="975" y="255" width="25" height="25" fill="#c9bf7d" class="grid"/>
  <rect x="600" y="280" width="25" height="25" fill="#3785a0" class="grid"/>
  <rect x="625" y="280" width="25" height="25" fill="#3785a0" class="grid"/>
  <rect x="650" y="280" width="25" height="25" fill="#3785a0" class="grid"/>
  <rect x="675" y="280" width="25" height="25" fill="#75a98c" class="grid"/>
  <rect x="700" y="280" width="25" height="25" fill="#75a98c" class="grid"/>
  <rect x="725" y="280" width="25" height="25" fill="#75a98c" class="grid"/>
  <rect x="750" y="280" width="25" height="25" fill="#75a98c" class="grid"/>
  <rect x="775" y="280" width="25" height="25" fill="#75a98c" class="grid"/>
  <rect x="800" y="280" width="25" height="25" fill="#75a98c" class="grid"/>
  <rect x="825" y="280" width="25" height="25" fill="#75a98c" class="grid"/>
  <rect x="850" y="280" width="25" height="25" fill="#c9bf7d" class="grid"/>
  <rect x="875" y="280" width="25" height="25" fill="#c9bf7d" class="grid"/>
  <rect x="900" y="280" width="25" height="25" fill="#c9bf7d" class="grid"/>
  <rect x="925" y="280" width="25" height="25" fill="#c9bf7d" class="grid"/>
  <rect x="950" y="280" width="25" height="25" fill="#c9bf7d" class="grid"/>
  <rect x="975" y="280" width="25" height="25" fill="#c9bf7d" class="grid"/>
  <rect x="600" y="305" width="25" height="25" fill="#3785a0" class="grid"/>
  <rect x="625" y="305" width="25" height="25" fill="#3785a0" class="grid"/>
  <rect x="650" y="305" width="25" height="25" fill="#75a98c" class="grid"/>
  <rect x="675" y="305" width="25" height="25" fill="#75a98c" class="grid"/>
  <rect x="700" y="305" width="25" height="25" fill="#75a98c" class="grid"/>
  <rect x="725" y="305" width="25" height="25" fill="#75a98c" class="grid"/>
  <rect x="750" y="305" width="25" height="25" fill="#3785a0" class="grid"/>
  <rect x="775" y="305" width="25" height="25" fill="#75a98c" class="grid"/>
  <rect x="800" y="305" width="25" height="25" fill="#75a98c" class="grid"/>
  <rect x="825" y="305" width="25" height="25" fill="#75a98c" class="grid"/>
  <rect x="850" y="305" width="25" height="25" fill="#c9bf7d" class="grid"/>
  <rect x="875" y="305" width="25" height="25" fill="#c9bf7d" class="grid"/>
  <rect x="900" y="305" width="25" height="25" fill="#c9bf7d" class="grid"/>
  <rect x="925" y="305" width="25" height="25" fill="#c9bf7d" class="grid"/>
  <rect x="950" y="305" width="25" height="25" fill="#c9bf7d" class="grid"/>
  <rect x="975" y="305" width="25" height="25" fill="#c9bf7d" class="grid"/>
  <rect x="600" y="330" width="25" height="25" fill="#3785a0" class="grid"/>
  <rect x="625" y="330" width="25" height="25" fill="#3785a0" class="grid"/>
  <rect x="650" y="330" width="25" height="25" fill="#75a98c" class="grid"/>
  <rect x="675" y="330" width="25" height="25" fill="#75a98c" class="grid"/>
  <rect x="700" y="330" width="25" height="25" fill="#3785a0" class="grid"/>
  <rect x="725" y="330" width="25" height="25" fill="#3785a0" class="grid"/>
  <rect x="750" y="330" width="25" height="25" fill="#3785a0" class="grid"/>
  <rect x="775" y="330" width="25" height="25" fill="#75a98c" class="grid"/>
  <rect x="800" y="330" width="25" height="25" fill="#75a98c" class="grid"/>
  <rect x="825" y="330" width="25" height="25" fill="#c9bf7d" class="grid"/>
  <rect x="850" y="330" width="25" height="25" fill="#c9bf7d" class="grid"/>
  <rect x="875" y="330" width="25" height="25" fill="#c9bf7d" class="grid"/>
  <rect x="900" y="330" width="25" height="25" fill="#75a98c" class="grid"/>
  <rect x="925" y="330" width="25" height="25" fill="#75a98c" class="grid"/>
  <rect x="950" y="330" width="25" height="25" fill="#75a98c" class="grid"/>
  <rect x="975" y="330" width="25" height="25" fill="#c9bf7d" class="grid"/>
  <rect x="600" y="355" width="25" height="25" fill="#3785a0" class="grid"/>
  <rect x="625" y="355" width="25" height="25" fill="#3785a0" class="grid"/>
  <rect x="650" y="355" width="25" height="25" fill="#3785a0" class="grid"/>
  <rect x="675" y="355" width="25" height="25" fill="#3785a0" class="grid"/>
  <rect x="700" y="355" width="25" height="25" fill="#3785a0" class="grid"/>
  <rect x="725" y="355" width="25" height="25" fill="#3785a0" class="grid"/>
  <rect x="750" y="355" width="25" height="25" fill="#3785a0" class="grid"/>
  <rect x="775" y="355" width="25" height="25" fill="#75a98c" class="grid"/>
  <rect x="800" y="355" width="25" height="25" fill="#75a98c" class="grid"/>
  <rect x="825" y="355" width="25" height="25" fill="#c9bf7d" class="grid"/>
  <rect x="850" y="355" width="25" height="25" fill="#75a98c" class="grid"/>
  <rect x="875" y="355" width="25" height="25" fill="#75a98c" class="grid"/>
  <rect x="900" y="355" width="25" height="25" fill="#75a98c" class="grid"/>
  <rect x="925" y="355" width="25" height="25" fill="#75a98c" class="grid"/>
  <rect x="950" y="355" width="25" height="25" fill="#c9bf7d" class="grid"/>
  <rect x="975" y="355" width="25" height="25" fill="#c9bf7d" class="grid"/>
  <rect x="600" y="380" width="25" height="25" fill="#3785a0" class="grid"/>
  <rect x="625" y="380" width="25" height="25" fill="#3785a0" class="grid"/>
  <rect x="650" y="380" width="25" height="25" fill="#3785a0" class="grid"/>
  <rect x="675" y="380" width="25" height="25" fill="#3785a0" class="grid"/>
  <rect x="700" y="380" width="25" height="25" fill="#3785a0" class="grid"/>
  <rect x="725" y="380" width="25" height="25" fill="#3785a0" class="grid"/>
  <rect x="750" y="380" width="25" height="25" fill="#75a98c" class="grid"/>
  <rect x="775" y="380" width="25" height="25" fill="#75a98c" class="grid"/>
  <rect x="800" y="380" width="25" height="25" fill="#75a98c" class="grid"/>
  <rect x="825" y="380" width="25" height="25" fill="#75a98c" class="grid"/>
  <rect x="850" y="380" width="25" height="25" fill="#75a98c" class="grid"/>
  <rect x="875" y="380" width="25" height="25" fill="#75a98c" class="grid"/>
  <rect x="900" y="380" width="25" height="25" fill="#75a98c" class="grid"/>
  <rect x="925" y="380" width="25" height="25" fill="#75a98c" class="grid"/>
  <rect x="950" y="380" width="25" height="25" fill="#c9bf7d" class="grid"/>
  <rect x="975" y="380" width="25" height="25" fill="#c9bf7d" class="grid"/>
  <rect x="600" y="405" width="25" height="25" fill="#3785a0" class="grid"/>
  <rect x="625" y="405" width="25" height="25" fill="#3785a0" class="grid"/>
  <rect x="650" y="405" width="25" height="25" fill="#176486" class="grid"/>
  <rect x="675" y="405" width="25" height="25" fill="#176486" class="grid"/>
  <rect x="700" y="405" width="25" height="25" fill="#3785a0" class="grid"/>
  <rect x="725" y="405" width="25" height="25" fill="#3785a0" class="grid"/>
  <rect x="750" y="405" width="25" height="25" fill="#75a98c" class="grid"/>
  <rect x="775" y="405" width="25" height="25" fill="#75a98c" class="grid"/>
  <rect x="800" y="405" width="25" height="25" fill="#75a98c" class="grid"/>
  <rect x="825" y="405" width="25" height="25" fill="#75a98c" class="grid"/>
  <rect x="850" y="405" width="25" height="25" fill="#75a98c" class="grid"/>
  <rect x="875" y="405" width="25" height="25" fill="#75a98c" class="grid"/>
  <rect x="900" y="405" width="25" height="25" fill="#75a98c" class="grid"/>
  <rect x="925" y="405" width="25" height="25" fill="#c9bf7d" class="grid"/>
  <rect x="950" y="405" width="25" height="25" fill="#c9bf7d" class="grid"/>
  <rect x="975" y="405" width="25" height="25" fill="#c9bf7d" class="grid"/>
  <rect x="600" y="430" width="25" height="25" fill="#176486" class="grid"/>
  <rect x="625" y="430" width="25" height="25" fill="#176486" class="grid"/>
  <rect x="650" y="430" width="25" height="25" fill="#176486" class="grid"/>
  <rect x="675" y="430" width="25" height="25" fill="#3785a0" class="grid"/>
  <rect x="700" y="430" width="25" height="25" fill="#3785a0" class="grid"/>
  <rect x="725" y="430" width="25" height="25" fill="#75a98c" class="grid"/>
  <rect x="750" y="430" width="25" height="25" fill="#75a98c" class="grid"/>
  <rect x="775" y="430" width="25" height="25" fill="#75a98c" class="grid"/>
  <rect x="800" y="430" width="25" height="25" fill="#3785a0" class="grid"/>
  <rect x="825" y="430" width="25" height="25" fill="#3785a0" class="grid"/>
  <rect x="850" y="430" width="25" height="25" fill="#3785a0" class="grid"/>
  <rect x="875" y="430" width="25" height="25" fill="#75a98c" class="grid"/>
  <rect x="900" y="430" width="25" height="25" fill="#75a98c" class="grid"/>
  <rect x="925" y="430" width="25" height="25" fill="#c9bf7d" class="grid"/>
  <rect x="950" y="430" width="25" height="25" fill="#c9bf7d" class="grid"/>
  <rect x="975" y="430" width="25" height="25" fill="#c9bf7d" class="grid"/>
  <rect x="600" y="455" width="25" height="25" fill="#176486" class="grid"/>
  <rect x="625" y="455" width="25" height="25" fill="#176486" class="grid"/>
  <rect x="650" y="455" width="25" height="25" fill="#176486" class="grid"/>
  <rect x="675" y="455" width="25" height="25" fill="#3785a0" class="grid"/>
  <rect x="700" y="455" width="25" height="25" fill="#3785a0" class="grid"/>
  <rect x="725" y="455" width="25" height="25" fill="#3785a0" class="grid"/>
  <rect x="750" y="455" width="25" height="25" fill="#3785a0" class="grid"/>
  <rect x="775" y="455" width="25" height="25" fill="#3785a0" class="grid"/>
  <rect x="800" y="455" width="25" height="25" fill="#3785a0" class="grid"/>
  <rect x="825" y="455" width="25" height="25" fill="#3785a0" class="grid"/>
  <rect x="850" y="455" width="25" height="25" fill="#3785a0" class="grid"/>
  <rect x="875" y="455" width="25" height="25" fill="#75a98c" class="grid"/>
  <rect x="900" y="455" width="25" height="25" fill="#75a98c" class="grid"/>
  <rect x="925" y="455" width="25" height="25" fill="#c9bf7d" class="grid"/>
  <rect x="950" y="455" width="25" height="25" fill="#75a98c" class="grid"/>
  <rect x="975" y="455" width="25" height="25" fill="#75a98c" class="grid"/>
  <rect x="600" y="480" width="25" height="25" fill="#176486" class="grid"/>
  <rect x="625" y="480" width="25" height="25" fill="#176486" class="grid"/>
  <rect x="650" y="480" width="25" height="25" fill="#3785a0" class="grid"/>
  <rect x="675" y="480" width="25" height="25" fill="#3785a0" class="grid"/>
  <rect x="700" y="480" width="25" height="25" fill="#3785a0" class="grid"/>
  <rect x="725" y="480" width="25" height="25" fill="#3785a0" class="grid"/>
  <rect x="750" y="480" width="25" height="25" fill="#3785a0" class="grid"/>
  <rect x="775" y="480" width="25" height="25" fill="#3785a0" class="grid"/>
  <rect x="800" y="480" width="25" height="25" fill="#3785a0" class="grid"/>
  <rect x="825" y="480" width="25" height="25" fill="#3785a0" class="grid"/>
  <rect x="850" y="480" width="25" height="25" fill="#75a98c" class="grid"/>
  <rect x="875" y="480" width="25" height="25" fill="#75a98c" class="grid"/>
  <rect x="900" y="480" width="25" height="25" fill="#75a98c" class="grid"/>
  <rect x="925" y="480" width="25" height="25" fill="#75a98c" class="grid"/>
  <rect x="950" y="480" width="25" height="25" fill="#75a98c" class="grid"/>
  <rect x="975" y="480" width="25" height="25" fill="#75a98c" class="grid"/>
  <rect x="600" y="505" width="25" height="25" fill="#176486" class="grid"/>
  <rect x="625" y="505" width="25" height="25" fill="#176486" class="grid"/>
  <rect x="650" y="505" width="25" height="25" fill="#3785a0" class="grid"/>
  <rect x="675" y="505" width="25" height="25" fill="#3785a0" class="grid"/>
  <rect x="700" y="505" width="25" height="25" fill="#3785a0" class="grid"/>
  <rect x="725" y="505" width="25" height="25" fill="#3785a0" class="grid"/>
  <rect x="750" y="505" width="25" height="25" fill="#176486" class="grid"/>
  <rect x="775" y="505" width="25" height="25" fill="#3785a0" class="grid"/>
  <rect x="800" y="505" width="25" height="25" fill="#3785a0" class="grid"/>
  <rect x="825" y="505" width="25" height="25" fill="#3785a0" class="grid"/>
  <rect x="850" y="505" width="25" height="25" fill="#75a98c" class="grid"/>
  <rect x="875" y="505" width="25" height="25" fill="#75a98c" class="grid"/>
  <rect x="900" y="505" width="25" height="25" fill="#75a98c" class="grid"/>
  <rect x="925" y="505" width="25" height="25" fill="#75a98c" class="grid"/>
  <rect x="950" y="505" width="25" height="25" fill="#75a98c" class="grid"/>
  <rect x="975" y="505" width="25" height="25" fill="#75a98c" class="grid"/>
  <rect x="875" y="355" width="25" height="25" class="support"/>
  <path d="M 900,367.5 L 985,367.5" class="leader"/>
  <text x="980" y="343" text-anchor="end" class="support-label">suport 25 × 25 m</text>
  <text x="800" y="575" text-anchor="middle" class="note">16 × 16 = 256 cel·les</text>
  <text x="800" y="610" text-anchor="middle" class="note">mateix àmbit de 400 × 400 m</text>
  <text x="1325" y="80" text-anchor="middle" class="heading">Graella grossa · 200 m</text>
  <rect x="1125" y="130" width="200" height="200" fill="#75a98c" class="grid"/>
  <rect x="1325" y="130" width="200" height="200" fill="#e3a574" class="grid"/>
  <rect x="1125" y="330" width="200" height="200" fill="#176486" class="grid"/>
  <rect x="1325" y="330" width="200" height="200" fill="#75a98c" class="grid"/>
  <line x1="1350" y1="130" x2="1350" y2="330" class="subgrid"/>
  <line x1="1325" y1="155" x2="1525" y2="155" class="subgrid"/>
  <line x1="1375" y1="130" x2="1375" y2="330" class="subgrid"/>
  <line x1="1325" y1="180" x2="1525" y2="180" class="subgrid"/>
  <line x1="1400" y1="130" x2="1400" y2="330" class="subgrid"/>
  <line x1="1325" y1="205" x2="1525" y2="205" class="subgrid"/>
  <line x1="1425" y1="130" x2="1425" y2="330" class="subgrid"/>
  <line x1="1325" y1="230" x2="1525" y2="230" class="subgrid"/>
  <line x1="1450" y1="130" x2="1450" y2="330" class="subgrid"/>
  <line x1="1325" y1="255" x2="1525" y2="255" class="subgrid"/>
  <line x1="1475" y1="130" x2="1475" y2="330" class="subgrid"/>
  <line x1="1325" y1="280" x2="1525" y2="280" class="subgrid"/>
  <line x1="1500" y1="130" x2="1500" y2="330" class="subgrid"/>
  <line x1="1325" y1="305" x2="1525" y2="305" class="subgrid"/>
  <rect x="1325" y="130" width="200" height="200" class="support"/>
  <text x="1425.0" y="222" text-anchor="middle" class="label">8 × 8</text>
  <text x="1425.0" y="258" text-anchor="middle" class="label">= 64 suports fins</text>
  <text x="1325" y="575" text-anchor="middle" class="note">2 × 2 = 4 cel·les</text>
  <text x="1325" y="610" text-anchor="middle" class="note">mateix àmbit de 400 × 400 m</text>
  <text x="800" y="690" text-anchor="middle" class="footer">Suport, mida de cel·la, resolució efectiva i exactitud són propietats diferents.</text>
</svg>
